<?xml version="1.0" encoding="UTF-8"?>
<svg xmlns="http://www.w3.org/2000/svg" xmlns:xlink="http://www.w3.org/1999/xlink" width="1388.08pt" height="179.95pt" viewBox="0 0 1388.08 179.95" version="1.1">
<defs>
<clipPath id="clip1">
  <path d="M 631 4 L 877 4 L 877 179.949219 L 631 179.949219 Z M 631 4 "/>
</clipPath>
<clipPath id="clip2">
  <path d="M 224 4 L 470 4 L 470 179.949219 L 224 179.949219 Z M 224 4 "/>
</clipPath>
<clipPath id="clip3">
  <path d="M 467 0 L 640 0 L 640 179.949219 L 467 179.949219 Z M 467 0 "/>
</clipPath>
<clipPath id="clip4">
  <path d="M 1283 10 L 1388.078125 10 L 1388.078125 173 L 1283 173 Z M 1283 10 "/>
</clipPath>
<clipPath id="clip5">
  <path d="M 74 97 L 143 97 L 143 179.949219 L 74 179.949219 Z M 74 97 "/>
</clipPath>
</defs>
<g id="surface1">
<g clip-path="url(#clip1)" clip-rule="nonzero">
<path style=" stroke:none;fill-rule:evenodd;fill:rgb(87.098694%,15.699768%,18.798828%);fill-opacity:1;" d="M 702.226563 133.742188 C 704.070313 131.75 704.703125 129.628906 705.253906 127.378906 C 714.8125 88.082031 724.46875 48.804688 733.941406 9.488281 C 734.859375 5.679688 736.109375 4.019531 740.433594 4.210938 C 749.910156 4.628906 759.425781 4.453125 768.921875 4.273438 C 771.824219 4.21875 772.898438 5.214844 773.617188 7.976563 C 782.894531 43.570313 792.375 79.109375 801.601563 114.714844 C 802.972656 120.003906 803.292969 125.558594 804.117188 130.988281 C 804.308594 132.265625 804.0625 133.726563 805.878906 134.742188 C 810.628906 115.421875 815.390625 96.230469 820.0625 77.015625 C 825.492188 54.695313 831.003906 32.394531 836.101563 10.003906 C 837.183594 5.253906 839.15625 4.046875 843.769531 4.222656 C 853.585938 4.597656 863.429688 4.4375 873.257813 4.273438 C 876.421875 4.222656 877.191406 4.835938 876.386719 8.183594 C 864.679688 56.890625 852.273438 105.410156 839.523438 153.859375 C 833.542969 176.582031 805.851563 186.433594 785.621094 174.308594 C 778.691406 170.160156 774.464844 164.058594 772.136719 156.40625 C 766.121094 136.660156 761.128906 116.636719 755.972656 96.65625 C 755.539063 94.972656 755.019531 93.304688 753.644531 91.609375 C 752.507813 95.828125 751.355469 100.039063 750.246094 104.265625 C 745.71875 121.484375 741.066406 138.667969 736.246094 155.808594 C 731.09375 174.152344 715.332031 179.664063 703.121094 179.640625 C 688.203125 179.621094 674.601563 172.796875 669.742188 156.285156 C 659.066406 120.027344 650.351563 83.269531 641.136719 46.636719 C 637.929688 33.890625 635.007813 21.066406 631.730469 8.335938 C 630.945313 5.296875 631.152344 4.203125 634.652344 4.265625 C 645.3125 4.457031 655.984375 4.421875 666.644531 4.28125 C 669.296875 4.246094 670.429688 5.109375 671.101563 7.675781 C 680.453125 43.414063 689.988281 79.109375 699.238281 114.878906 C 700.800781 120.925781 701.230469 127.269531 702.226563 133.742188 "/>
</g>
<g clip-path="url(#clip2)" clip-rule="nonzero">
<path style=" stroke:none;fill-rule:evenodd;fill:rgb(87.098694%,15.699768%,18.798828%);fill-opacity:1;" d="M 346.605469 91.742188 C 343.4375 103.742188 340.355469 115.769531 337.078125 127.742188 C 334.308594 137.851563 331.574219 147.984375 328.359375 157.960938 C 323.847656 171.980469 307.480469 181.695313 292.816406 179.6875 C 276.707031 177.480469 266.230469 169.484375 261.683594 153.128906 C 249.902344 110.785156 239.492188 68.105469 229.003906 25.4375 C 227.535156 19.453125 226.195313 13.4375 224.535156 7.507813 C 223.804688 4.894531 224.582031 4.296875 227.03125 4.3125 C 238.03125 4.378906 249.03125 4.460938 260.027344 4.261719 C 263.386719 4.199219 263.65625 6.191406 264.273438 8.53125 C 270.800781 33.320313 277.480469 58.066406 283.921875 82.878906 C 288.339844 99.910156 293.902344 116.695313 295.109375 134.507813 C 297.183594 133.851563 296.921875 132.285156 297.21875 131.078125 C 307.15625 90.667969 317.171875 50.277344 326.863281 9.808594 C 327.953125 5.261719 329.679688 4.050781 334.128906 4.226563 C 343.445313 4.589844 352.789063 4.414063 362.121094 4.285156 C 364.707031 4.253906 365.84375 4.988281 366.539063 7.65625 C 375.863281 43.410156 385.433594 79.105469 394.671875 114.878906 C 396.316406 121.246094 396.738281 127.921875 398.824219 134.523438 C 401.515625 123.875 404.292969 113.246094 406.886719 102.578125 C 414.425781 71.519531 421.96875 40.464844 429.289063 9.355469 C 430.234375 5.328125 431.789063 4.074219 435.929688 4.21875 C 445.914063 4.566406 455.925781 4.40625 465.921875 4.285156 C 469 4.246094 470.304688 4.472656 469.375 8.332031 C 457.65625 57.042969 445.308594 105.585938 432.476563 154.019531 C 426.398438 176.949219 398.496094 186.363281 378.492188 174.207031 C 372.425781 170.519531 368.167969 165.378906 365.953125 158.582031 C 359.335938 138.3125 354.496094 117.554688 349.058594 96.960938 C 348.597656 95.222656 348.136719 93.488281 347.675781 91.75 C 347.316406 91.746094 346.960938 91.742188 346.605469 91.742188 "/>
</g>
<g clip-path="url(#clip3)" clip-rule="nonzero">
<path style=" stroke:none;fill-rule:evenodd;fill:rgb(87.098694%,15.699768%,18.798828%);fill-opacity:1;" d="M 598.011719 89.921875 C 598.15625 84.652344 597.386719 77.871094 595.941406 71.179688 C 591.378906 50.011719 576.234375 37.097656 554.964844 36.148438 C 533.394531 35.179688 516.21875 46.660156 510.394531 66.574219 C 505.667969 82.742188 505.546875 99.164063 510.21875 115.394531 C 515.820313 134.867188 531.921875 146.976563 551.921875 147.253906 C 572.511719 147.535156 588.332031 136.058594 594.597656 116.171875 C 597.117188 108.160156 597.980469 99.890625 598.011719 89.921875 M 467.867188 92.582031 C 467.882813 75.488281 469.46875 60.609375 475.890625 46.738281 C 486.773438 23.222656 504.441406 7.960938 530.210938 2.511719 C 546.476563 -0.929688 562.660156 -0.984375 578.6875 3.242188 C 608.058594 10.988281 626.996094 29.730469 635.078125 58.960938 C 640.59375 78.914063 640.578125 99.191406 635.65625 119.269531 C 627.363281 153.113281 601.230469 175.183594 566.332031 178.972656 C 550.820313 180.65625 535.613281 179.601563 521 174.503906 C 490.269531 163.773438 474.050781 141.039063 469.101563 109.515625 C 468.117188 103.25 467.828125 96.929688 467.867188 92.582031 "/>
</g>
<path style=" stroke:none;fill-rule:evenodd;fill:rgb(6.698608%,7.099915%,7.099915%);fill-opacity:1;" d="M 1266.359375 92.566406 C 1266.609375 54.210938 1235.609375 22.285156 1197.808594 21.972656 C 1157.539063 21.644531 1125.441406 52.515625 1125.261719 91.761719 C 1125.089844 129.828125 1156.410156 161.734375 1194.261719 162.042969 C 1234.488281 162.375 1266.109375 131.914063 1266.359375 92.566406 M 1114.820313 91.800781 C 1115.070313 47.074219 1151.511719 11.019531 1196.179688 11.308594 C 1241.589844 11.605469 1277.320313 48.070313 1277.089844 93.878906 C 1276.871094 137.230469 1239.679688 173.023438 1195.101563 172.800781 C 1150.621094 172.582031 1114.570313 136.203125 1114.820313 91.800781 "/>
<path style=" stroke:none;fill-rule:evenodd;fill:rgb(9.799194%,9.799194%,10.198975%);fill-opacity:1;" d="M 973.175781 90.703125 C 973.171875 65.882813 973.210938 41.0625 973.113281 16.246094 C 973.105469 13.503906 972.914063 11.234375 976.558594 11.0625 C 980.054688 10.898438 982.9375 11.644531 983.855469 15.492188 C 984.15625 16.757813 983.964844 18.144531 983.964844 19.476563 C 983.96875 40.632813 984.058594 61.785156 983.875 82.941406 C 983.84375 86.527344 984.898438 87.261719 988.308594 87.246094 C 1020.289063 87.113281 1052.269531 87.152344 1084.261719 87.195313 C 1086.789063 87.199219 1088.511719 87.3125 1088.480469 83.699219 C 1088.28125 61.214844 1088.421875 38.726563 1088.269531 16.238281 C 1088.25 13.375 1088.230469 11.277344 1091.75 11.070313 C 1095.238281 10.867188 1098.121094 11.644531 1099.03125 15.496094 C 1099.328125 16.765625 1099.171875 18.148438 1099.171875 19.480469 C 1099.179688 67.785156 1099.179688 116.09375 1099.160156 164.402344 C 1099.160156 166.050781 1099.25 167.824219 1098.710938 169.324219 C 1097.929688 171.492188 1096.019531 172.855469 1093.679688 172.734375 C 1091.398438 172.617188 1089.480469 171.34375 1088.898438 168.984375 C 1088.480469 167.238281 1088.410156 165.371094 1088.398438 163.558594 C 1088.371094 143.238281 1088.25 122.914063 1088.488281 102.59375 C 1088.539063 98.476563 1087.210938 97.808594 1083.5 97.828125 C 1051.851563 97.96875 1020.199219 97.972656 988.546875 97.820313 C 984.914063 97.800781 983.824219 98.535156 983.863281 102.378906 C 984.078125 123.199219 983.972656 144.023438 983.964844 164.84375 C 983.960938 170.015625 981.957031 173.144531 978.539063 172.738281 C 973.847656 172.175781 973.132813 168.726563 973.144531 164.664063 C 973.21875 140.011719 973.183594 115.355469 973.175781 90.703125 "/>
<g clip-path="url(#clip4)" clip-rule="nonzero">
<path style=" stroke:none;fill-rule:evenodd;fill:rgb(4.699707%,5.099487%,5.099487%);fill-opacity:1;" d="M 1294.160156 71.9375 C 1294.160156 87.597656 1294.21875 103.261719 1294.101563 118.917969 C 1294.078125 121.765625 1294.5 123.058594 1297.828125 122.96875 C 1306.988281 122.710938 1316.171875 123.261719 1325.308594 122.769531 C 1342.648438 121.835938 1357.96875 116.078125 1368.5 101.449219 C 1389.570313 72.179688 1371.578125 30.273438 1334.949219 23 C 1323.238281 20.671875 1311.359375 22.308594 1299.570313 21.675781 C 1295.390625 21.449219 1293.910156 22.308594 1294.019531 26.960938 C 1294.390625 41.945313 1294.160156 56.945313 1294.160156 71.9375 M 1283.789063 90.449219 C 1283.789063 67.113281 1283.789063 43.78125 1283.78125 20.449219 C 1283.78125 18.789063 1283.988281 17.050781 1283.578125 15.480469 C 1282.808594 12.550781 1284.140625 11.101563 1286.71875 11.175781 C 1305.128906 11.714844 1323.738281 8.796875 1341.898438 13.886719 C 1370.890625 22.015625 1389.890625 47.8125 1387.949219 77.789063 C 1386.238281 104.210938 1368.011719 124.144531 1341.898438 130.984375 C 1329.429688 134.253906 1316.730469 132.949219 1304.121094 133.15625 C 1294.160156 133.324219 1294.160156 133.191406 1294.160156 143.386719 C 1294.160156 150.886719 1294.039063 158.390625 1294.210938 165.886719 C 1294.308594 169.875 1292.871094 172.742188 1288.808594 172.636719 C 1285.03125 172.542969 1283.738281 169.648438 1283.75 165.945313 C 1283.820313 140.78125 1283.789063 115.613281 1283.789063 90.449219 "/>
</g>
<path style=" stroke:none;fill-rule:evenodd;fill:rgb(11.799622%,50.19989%,74.899292%);fill-opacity:1;" d="M 125.921875 61.332031 C 125.941406 79.425781 119.132813 85.5 102.902344 82.992188 C 89.921875 80.984375 78.230469 75.539063 68.746094 66.589844 C 46.289063 45.390625 61.273438 12.675781 83.347656 5.375 C 93.757813 1.929688 104.621094 6.316406 111.8125 16.75 C 118.226563 26.066406 121.605469 36.699219 124.0625 47.621094 C 125.195313 52.648438 125.828125 57.773438 125.921875 61.332031 "/>
<g clip-path="url(#clip5)" clip-rule="nonzero">
<path style=" stroke:none;fill-rule:evenodd;fill:rgb(87.098694%,15.699768%,18.798828%);fill-opacity:1;" d="M 103.875 179.171875 C 88.597656 179.191406 77.945313 171.777344 75.453125 159.210938 C 74.363281 153.71875 74.914063 148.238281 76.789063 142.976563 C 81.824219 128.816406 89.375 116.175781 100.320313 105.789063 C 113.46875 93.308594 123.671875 94.886719 132.757813 110.671875 C 138.332031 120.355469 141.335938 130.929688 141.964844 142.007813 C 143.160156 163.0625 126.480469 179.148438 103.875 179.171875 "/>
</g>
<path style=" stroke:none;fill-rule:evenodd;fill:rgb(96.099854%,59.199524%,20.399475%);fill-opacity:1;" d="M 205.3125 98.21875 C 204.941406 107.40625 201.464844 116.394531 194.621094 123.949219 C 185.203125 134.355469 171.992188 136.433594 161.074219 127.71875 C 144.566406 114.546875 135.027344 96.800781 132.273438 75.867188 C 131.027344 66.367188 135.757813 60.75 145.492188 59.15625 C 161.535156 56.527344 176.757813 59.664063 190.386719 68.367188 C 200.613281 74.898438 205.351563 84.988281 205.3125 98.21875 "/>
<path style=" stroke:none;fill-rule:evenodd;fill:rgb(7.099915%,7.499695%,7.499695%);fill-opacity:1;" d="M 860.578125 137.734375 C 872.078125 163.664063 912.648438 171.757813 936.414063 150.726563 C 949.117188 139.480469 949.375 123.183594 937.378906 111.183594 C 928.824219 102.628906 918.117188 97.722656 906.84375 93.9375 C 898.34375 91.082031 889.941406 88.058594 881.765625 84.320313 C 877.277344 82.265625 875.621094 79.910156 877.957031 75.3125 C 878.617188 74.011719 878.855469 72.5 879.414063 70.675781 C 890.628906 79.039063 903.96875 81.871094 916.324219 86.988281 C 926.347656 91.136719 936.101563 95.75 944.144531 103.238281 C 961.417969 119.324219 960.824219 143.765625 942.847656 159.160156 C 921.753906 177.222656 885.59375 177.386719 864.304688 159.515625 C 855.828125 152.402344 855.335938 149.699219 860.578125 137.734375 "/>
<path style=" stroke:none;fill-rule:evenodd;fill:rgb(6.698608%,7.099915%,7.099915%);fill-opacity:1;" d="M 25.523438 78.3125 C 32.722656 78.46875 38.765625 81.050781 44.058594 85.875 C 46.695313 88.28125 45.75 89.5625 43.339844 91.015625 C 39.773438 93.160156 36.765625 91.730469 33.59375 89.902344 C 27.457031 86.359375 20.519531 87.113281 15.597656 91.59375 C 10.304688 96.410156 8.570313 104.605469 11.4375 111.261719 C 14.101563 117.449219 20.277344 121.285156 26.929688 120.863281 C 29.808594 120.679688 32.441406 119.746094 34.871094 118.210938 C 36.585938 117.128906 38.394531 116.355469 40.488281 116.542969 C 42.75 116.738281 45.109375 117.382813 45.867188 119.53125 C 46.585938 121.570313 44.183594 122.542969 42.90625 123.65625 C 34.824219 130.683594 22.929688 132.03125 13.554688 127.121094 C 4.773438 122.519531 -0.792969 112.25 0.09375 102.277344 C 1.058594 91.417969 8.113281 82.453125 18.1875 79.539063 C 20.550781 78.855469 23.074219 78.707031 25.523438 78.3125 "/>
<path style=" stroke:none;fill-rule:evenodd;fill:rgb(5.499268%,5.899048%,5.899048%);fill-opacity:1;" d="M 59.542969 105.957031 C 59.542969 101.460938 59.363281 96.957031 59.601563 92.476563 C 59.78125 89.019531 58.636719 87.792969 55.101563 88.035156 C 53.480469 88.148438 50.308594 89.800781 50.339844 85.835938 C 50.367188 82.652344 51.726563 80.074219 55.132813 79.9375 C 61.78125 79.675781 68.453125 79.828125 75.113281 79.8125 C 76.199219 79.8125 76.992188 80.0625 77.035156 81.453125 C 77.105469 83.5625 76.898438 86.179688 74.941406 86.65625 C 68.859375 88.144531 70.28125 92.699219 70.242188 96.707031 C 70.171875 104.03125 70.34375 111.367188 70.121094 118.6875 C 69.757813 130.6875 61.742188 139.347656 49.921875 141.03125 C 47.550781 141.371094 46.851563 140.921875 47.554688 138.492188 C 48.210938 136.242188 49.457031 134.664063 51.554688 133.710938 C 57.042969 131.21875 59.371094 126.726563 59.472656 120.9375 C 59.5625 115.945313 59.492188 110.953125 59.492188 105.957031 C 59.507813 105.957031 59.527344 105.957031 59.542969 105.957031 "/>
<path style=" stroke:none;fill-rule:evenodd;fill:rgb(6.698608%,7.099915%,7.099915%);fill-opacity:1;" d="M 893.292969 23.398438 C 893.1875 22.65625 893.109375 22.480469 893.148438 22.332031 C 896.054688 11.558594 896.058594 11.453125 907.289063 11.847656 C 926.9375 12.542969 940.90625 22.609375 951.175781 38.707031 C 952.886719 41.394531 951.949219 43.433594 949.828125 45.21875 C 947.535156 47.15625 945.210938 46.972656 943.238281 44.796875 C 941.683594 43.082031 940.390625 41.132813 938.964844 39.296875 C 928.191406 25.417969 914.101563 20.066406 896.820313 22.921875 C 895.71875 23.105469 894.605469 23.222656 893.292969 23.398438 "/>
</g>
</svg>
